<svg xmlns="http://www.w3.org/2000/svg" width="100px" height="94px" viewBox="0 0 1396 1317">
    <path class="fil0" d="M1396 669l0 -233 -13 -2 -84 111c-121,-57 -316,-105 -422,-115l-129 -400c-13,-42 -54,-38 -61,1l-100 328 -20 65c-39,3 -77,7 -113,12l0 0c-4,1 -8,2 -11,2l-4 1c-23,4 -45,8 -68,13l-4 1 -1 0c-64,14 -119,33 -163,55l0 0c-131,66 -199,138 -203,214l0 0c0,11 1,23 4,36l0 0c8,71 72,141 189,209l0 0c41,23 94,44 155,62 10,3 20,6 31,9l-43 144 0 0c-24,76 -86,114 -185,114l0 21 424 0 0 -21c-135,0 -203,-27 -203,-81l0 0c0,-5 2,-13 4,-25l0 0 43 -143c11,2 22,5 33,7l0 0c79,16 170,26 265,29l0 0c18,1 37,2 55,2l3 0 1 0 3 -1 0 0 4 0c19,0 38,-1 56,-2l0 0 12 -1c20,-1 40,-3 59,-5l69 217 -180 0 0 23 513 0 0 -23 -155 0 -81 -248c36,-10 182,-57 217,-70l0 0 6 7 94 100 0 -270 -8 -1 -2 2c-30,36 -60,63 -110,98l0 0c-21,14 -45,31 -75,48l0 0c-17,10 -34,18 -50,26l0 0c-24,12 -52,22 -81,32l-182 -561 1 2c138,20 397,101 501,209l0 0 2 2 7 0zm-940 -170c31,-13 64,-23 98,-31l-159 517c-9,-5 -18,-11 -28,-17 -91,-58 -144,-135 -144,-213l0 0c0,-105 90,-199 233,-256zm143 -41c40,-7 81,-11 119,-12l186 610c-40,5 -86,8 -136,8l0 0c-42,0 -86,-3 -129,-7l0 0c-47,-6 -88,-14 -123,-22 -32,-11 -59,-20 -84,-32l167 -545zm112 -37c-34,0 -67,0 -101,1l50 -165 51 164z"></path>
</svg>
